<?xml version="1.0" encoding="utf-8"?>
<!-- Generator: Adobe Illustrator 23.0.0, SVG Export Plug-In . SVG Version: 6.00 Build 0)  -->
<svg version="1.1" id="圖層_1" xmlns="http://www.w3.org/2000/svg" xmlns:xlink="http://www.w3.org/1999/xlink" x="0px" y="0px"
	 viewBox="0 0 200 200" style="enable-background:new 0 0 200 200;" xml:space="preserve">
<style type="text/css">
	.st0{fill:#004DA0;}
</style>
<g>
	<g>
		<path class="st0" d="M100.12,192.25C49.33,192.25,8,150.93,8,100.13c0-50.8,41.33-92.12,92.12-92.12
			c50.8,0,92.12,41.33,92.12,92.12C192.24,150.93,150.92,192.25,100.12,192.25z M100.12,16.63c-46.05,0-83.51,37.46-83.51,83.5
			c0,46.04,37.46,83.51,83.51,83.51c46.05,0,83.5-37.46,83.5-83.51C183.63,54.09,146.17,16.63,100.12,16.63z"/>
		<polygon class="st0" points="55.58,179.18 19.77,55.97 36.16,44.75 68.4,155.66 64.46,156.81 69.76,175.05 		"/>
		
			<rect x="43.46" y="133.46" transform="matrix(0.478 -0.8784 0.8784 0.478 -82.5975 145.1711)" class="st0" width="74.74" height="17.23"/>
		<polygon class="st0" points="144.74,179.18 130.55,175.05 135.86,156.81 131.92,155.66 164.15,44.75 180.54,55.97 		"/>
		
			<rect x="113.25" y="104.71" transform="matrix(0.8784 -0.478 0.478 0.8784 -53.0858 75.5278)" class="st0" width="17.23" height="74.74"/>
		
			<rect x="45.51" y="94.61" transform="matrix(1 -2.935046e-03 2.935046e-03 1 -0.3026 0.2874)" class="st0" width="104.49" height="17.23"/>
		
			<rect x="55.25" y="67.29" transform="matrix(1 -3.085276e-03 3.085276e-03 1 -0.2337 0.3093)" class="st0" width="89.77" height="17.23"/>
	</g>
</g>
</svg>
